<svg width="198" height="40" fill="none" xmlns="http://www.w3.org/2000/svg"><path d="M21.509 23.775H9.134L6.163 32.35H.92L12.642.628h5.446l11.72 31.721h-5.33l-2.97-8.574ZM10.416 19.82h9.808L15.39 5.904h-.135l-4.838 13.915ZM55.12 20.787c0 7.187-3.936 11.804-9.877 11.804a8.177 8.177 0 0 1-4.318-.978 7.933 7.933 0 0 1-3.128-3.068h-.113V40h-4.858V9.222h4.702v3.846h.09a8.307 8.307 0 0 1 3.19-3.061 8.554 8.554 0 0 1 4.346-1.027c6.007 0 9.967 4.64 9.967 11.807Zm-4.993 0c0-4.683-2.476-7.761-6.255-7.761-3.712 0-6.208 3.143-6.208 7.76 0 4.66 2.496 7.781 6.209 7.781 3.778 0 6.254-3.056 6.254-7.78ZM81.171 20.787c0 7.187-3.936 11.804-9.877 11.804a8.177 8.177 0 0 1-4.319-.977 7.934 7.934 0 0 1-3.128-3.07h-.112V40h-4.859V9.222h4.703v3.846h.09a8.308 8.308 0 0 1 3.19-3.061 8.554 8.554 0 0 1 4.346-1.027c6.007 0 9.966 4.64 9.966 11.807Zm-4.993 0c0-4.683-2.477-7.761-6.255-7.761-3.712 0-6.209 3.143-6.209 7.76 0 4.66 2.497 7.781 6.209 7.781 3.778 0 6.255-3.055 6.255-7.78ZM98.389 23.51c.36 3.146 3.487 5.212 7.761 5.212 4.095 0 7.041-2.066 7.041-4.902 0-2.462-1.777-3.936-5.984-4.947l-4.208-.99c-5.96-1.407-8.728-4.131-8.728-8.552C94.27 3.858 99.152.1 106.083.1c6.86 0 11.563 3.76 11.721 9.232H112.9c-.294-3.165-2.972-5.076-6.886-5.076-3.913 0-6.591 1.933-6.591 4.747 0 2.243 1.71 3.562 5.894 4.573l3.577.858c6.661 1.539 9.428 4.153 9.428 8.793 0 5.935-4.838 9.652-12.532 9.652-7.2 0-12.06-3.63-12.375-9.367h4.974ZM128.807 3.749v5.473h4.501v3.76h-4.501V25.73c0 1.98.902 2.904 2.88 2.904.534-.01 1.068-.046 1.598-.11v3.737c-.889.162-1.793.236-2.698.22-4.792 0-6.661-1.76-6.661-6.245V12.981h-3.441v-3.76h3.441V3.75h4.881ZM135.915 20.787c0-7.277 4.386-11.85 11.225-11.85 6.863 0 11.228 4.573 11.228 11.85 0 7.296-4.342 11.849-11.228 11.849-6.883 0-11.225-4.553-11.225-11.85Zm17.503 0c0-4.992-2.341-7.938-6.278-7.938-3.936 0-6.275 2.968-6.275 7.938 0 5.011 2.339 7.935 6.275 7.935 3.937 0 6.278-2.924 6.278-7.935ZM162.374 9.222h4.633v3.936h.113a5.506 5.506 0 0 1 2.087-3.077 5.737 5.737 0 0 1 3.606-1.101 7.668 7.668 0 0 1 1.665.177v4.44a6.945 6.945 0 0 0-2.183-.287 4.998 4.998 0 0 0-2.063.357 4.9 4.9 0 0 0-1.721 1.166 4.752 4.752 0 0 0-1.065 1.762 4.675 4.675 0 0 0-.214 2.036V32.35h-4.858V9.222ZM196.877 25.556c-.653 4.199-4.838 7.08-10.191 7.08-6.886 0-11.159-4.508-11.159-11.74 0-7.254 4.296-11.959 10.955-11.959 6.548 0 10.666 4.396 10.666 11.408v1.627h-16.717v.287a5.898 5.898 0 0 0 .32 2.515 5.99 5.99 0 0 0 1.351 2.164 6.166 6.166 0 0 0 2.142 1.43c.809.322 1.68.473 2.554.441a5.455 5.455 0 0 0 3.285-.74 5.264 5.264 0 0 0 2.181-2.513h4.613Zm-16.423-6.902h11.833a5.434 5.434 0 0 0-.349-2.25 5.536 5.536 0 0 0-1.241-1.925 5.696 5.696 0 0 0-1.927-1.278 5.805 5.805 0 0 0-2.288-.417 6.114 6.114 0 0 0-2.308.437 6.002 6.002 0 0 0-1.958 1.27 5.847 5.847 0 0 0-1.307 1.91 5.747 5.747 0 0 0-.455 2.253Z" fill="#fff"/></svg>