<svg width="181" height="17" fill="none" xmlns="http://www.w3.org/2000/svg"><path d="M5.807.751a7.048 7.048 0 0 1 2.992.44c.952.362 1.81.925 2.512 1.65a6.713 6.713 0 0 1 1.549 2.54c.317.948.415 1.954.287 2.944 0 4.87-2.694 7.668-7.34 7.668H.173V.751h5.634ZM2.595 13.838h2.941a5.006 5.006 0 0 0 2.132-.342 4.907 4.907 0 0 0 1.775-1.203 4.766 4.766 0 0 0 1.074-1.832c.214-.681.27-1.4.164-2.105a4.7 4.7 0 0 0-.18-2.093 4.78 4.78 0 0 0-1.077-1.818A4.921 4.921 0 0 0 7.657 3.25a5.02 5.02 0 0 0-2.12-.345H2.594v10.933ZM15.883 10.237a5.333 5.333 0 0 1 .26-2.24 5.423 5.423 0 0 1 1.165-1.944 5.574 5.574 0 0 1 1.87-1.319 5.688 5.688 0 0 1 4.513 0c.711.308 1.348.757 1.87 1.319.523.562.92 1.224 1.166 1.945.245.72.333 1.483.26 2.239a5.334 5.334 0 0 1-.257 2.242 5.424 5.424 0 0 1-1.164 1.948 5.575 5.575 0 0 1-1.872 1.321 5.689 5.689 0 0 1-4.518 0 5.574 5.574 0 0 1-1.872-1.32 5.424 5.424 0 0 1-1.164-1.95 5.333 5.333 0 0 1-.257-2.241Zm8.714 0c0-2.494-1.146-3.952-3.158-3.952-2.02 0-3.156 1.458-3.156 3.952 0 2.513 1.136 3.96 3.156 3.96 2.012 0 3.158-1.457 3.158-3.96ZM41.745 15.993h-2.41L36.902 7.52h-.184l-2.422 8.472h-2.387L28.664 4.49h2.356l2.109 8.777h.174l2.42-8.777h2.229l2.42 8.777h.184l2.098-8.777h2.323l-3.232 11.503ZM47.706 4.49h2.237v1.828h.173a3.47 3.47 0 0 1 1.421-1.574 3.59 3.59 0 0 1 2.092-.476 3.91 3.91 0 0 1 1.683.247 3.833 3.833 0 0 1 1.407.935c.391.411.683.903.854 1.439a3.66 3.66 0 0 1 .13 1.657v7.447h-2.322V9.116c0-1.848-.822-2.767-2.54-2.767a2.757 2.757 0 0 0-1.139.19c-.36.142-.686.36-.953.636-.267.277-.47.607-.593.967-.125.36-.168.743-.126 1.122v6.729h-2.324V4.49ZM61.406 0h2.323v15.993h-2.323V0ZM66.958 10.237a5.333 5.333 0 0 1 .26-2.24 5.423 5.423 0 0 1 1.165-1.945 5.575 5.575 0 0 1 1.87-1.318 5.69 5.69 0 0 1 4.514 0c.71.307 1.348.756 1.87 1.318.523.562.92 1.225 1.165 1.945.246.721.334 1.484.26 2.24a5.334 5.334 0 0 1-.257 2.242 5.425 5.425 0 0 1-1.164 1.948 5.576 5.576 0 0 1-1.872 1.321 5.69 5.69 0 0 1-4.518 0 5.575 5.575 0 0 1-1.872-1.32 5.424 5.424 0 0 1-1.164-1.95 5.333 5.333 0 0 1-.257-2.241Zm8.713 0c0-2.494-1.146-3.952-3.158-3.952-2.019 0-3.155 1.458-3.155 3.952 0 2.513 1.136 3.96 3.155 3.96 2.012 0 3.159-1.457 3.159-3.96ZM80.508 12.74c0-2.07 1.578-3.264 4.379-3.434l3.188-.18v-.992c0-1.215-.822-1.901-2.41-1.901-1.297 0-2.195.465-2.453 1.278h-2.25c.238-1.975 2.14-3.243 4.81-3.243 2.952 0 4.616 1.436 4.616 3.866v7.859h-2.236v-1.617h-.184a3.927 3.927 0 0 1-1.518 1.37 4.038 4.038 0 0 1-2.018.436 3.634 3.634 0 0 1-1.466-.15 3.575 3.575 0 0 1-1.277-.72 3.48 3.48 0 0 1-.87-1.164 3.407 3.407 0 0 1-.31-1.408Zm7.567-.983v-.962l-2.874.18c-1.622.106-2.357.645-2.357 1.659 0 1.035.92 1.638 2.183 1.638.37.036.744 0 1.1-.108.356-.107.685-.284.97-.518.284-.235.517-.523.685-.848.168-.324.268-.678.293-1.041ZM93.442 10.237c0-3.635 1.912-5.938 4.886-5.938a3.952 3.952 0 0 1 2.105.497 3.836 3.836 0 0 1 1.505 1.521h.173V0h2.324v15.993h-2.227v-1.818h-.183a4.052 4.052 0 0 1-1.562 1.508 4.165 4.165 0 0 1-2.135.5c-2.995 0-4.886-2.303-4.886-5.946Zm2.4 0c0 2.44 1.176 3.907 3.145 3.907 1.958 0 3.168-1.489 3.168-3.897 0-2.398-1.223-3.908-3.168-3.908-1.956 0-3.146 1.478-3.146 3.898ZM114.047 10.237a5.337 5.337 0 0 1 .259-2.24 5.429 5.429 0 0 1 1.165-1.944 5.576 5.576 0 0 1 1.871-1.319 5.684 5.684 0 0 1 4.512 0 5.576 5.576 0 0 1 1.871 1.319 5.429 5.429 0 0 1 1.165 1.945c.245.72.333 1.483.259 2.239a5.334 5.334 0 0 1-.256 2.242 5.425 5.425 0 0 1-1.164 1.948 5.58 5.58 0 0 1-1.872 1.321 5.688 5.688 0 0 1-4.518 0 5.58 5.58 0 0 1-1.872-1.32 5.425 5.425 0 0 1-1.164-1.95 5.334 5.334 0 0 1-.256-2.241Zm8.713 0c0-2.494-1.146-3.952-3.158-3.952-2.02 0-3.156 1.458-3.156 3.952 0 2.513 1.137 3.96 3.156 3.96 2.012 0 3.158-1.457 3.158-3.96ZM128.267 4.49h2.236v1.828h.174a3.466 3.466 0 0 1 1.421-1.574 3.59 3.59 0 0 1 2.092-.476 3.909 3.909 0 0 1 1.682.247 3.83 3.83 0 0 1 1.407.935c.392.411.683.903.854 1.439.17.536.215 1.102.131 1.657v7.447h-2.323V9.116c0-1.848-.822-2.767-2.54-2.767a2.757 2.757 0 0 0-1.138.19c-.361.142-.686.36-.953.636a2.588 2.588 0 0 0-.72 2.089v6.729h-2.323V4.49ZM151.391 1.627v2.916h2.551v1.912h-2.551v5.915c0 1.204.508 1.732 1.665 1.732.296 0 .592-.018.886-.052v1.89c-.417.073-.84.112-1.264.117-2.583 0-3.612-.889-3.612-3.106V6.455h-1.869V4.543h1.869V1.627h2.325ZM157.115 0h2.303v6.339h.184a3.571 3.571 0 0 1 1.461-1.585 3.694 3.694 0 0 1 2.128-.476c.57-.03 1.14.063 1.668.272.529.21 1.004.531 1.391.94.388.41.677.898.849 1.43.172.532.222 1.094.146 1.646v7.427h-2.325V9.126c0-1.837-.876-2.767-2.518-2.767-.399-.032-.8.021-1.176.157-.376.135-.717.35-1 .627a2.682 2.682 0 0 0-.635.98 2.64 2.64 0 0 0-.153 1.152v6.718h-2.323V0ZM180.791 12.887a4.673 4.673 0 0 1-1.932 2.569 4.864 4.864 0 0 1-3.168.759 5.456 5.456 0 0 1-2.259-.425 5.355 5.355 0 0 1-1.867-1.314 5.19 5.19 0 0 1-1.129-1.958 5.106 5.106 0 0 1-.183-2.24 5.195 5.195 0 0 1 .186-2.247 5.28 5.28 0 0 1 1.124-1.968 5.43 5.43 0 0 1 1.859-1.335 5.542 5.542 0 0 1 2.258-.46c3.276 0 5.252 2.187 5.252 5.799v.792h-8.313v.127c-.036.422.018.847.16 1.248.141.4.367.767.662 1.077.295.31.653.557 1.052.724.398.167.828.251 1.261.246a2.881 2.881 0 0 0 1.618-.28c.499-.249.91-.636 1.183-1.114h2.236Zm-8.172-3.707h5.946a2.724 2.724 0 0 0-.773-2.117 2.844 2.844 0 0 0-.969-.65 2.897 2.897 0 0 0-1.155-.213 3.072 3.072 0 0 0-1.173.217 3.03 3.03 0 0 0-.995.645 2.932 2.932 0 0 0-.659.972 2.875 2.875 0 0 0-.222 1.146Z" fill="#fff"/></svg>