<svg width="92" height="15" fill="none" xmlns="http://www.w3.org/2000/svg"><path d="M14.434 7.945c0 1.971-.583 3.54-1.752 4.711-1.33 1.393-3.058 2.089-5.184 2.089-2.04 0-3.77-.706-5.193-2.12C.877 11.216.167 9.463.167 7.375c0-2.091.71-3.841 2.138-5.255C3.728.708 5.459 0 7.498 0c1.009 0 1.978.198 2.895.593.92.395 1.656.92 2.209 1.576L11.36 3.41c-.934-1.114-2.22-1.674-3.862-1.674-1.487 0-2.77.522-3.855 1.566C2.559 4.35 2.018 5.704 2.018 7.374c0 1.667.54 3.024 1.625 4.069 1.084 1.046 2.368 1.566 3.855 1.566 1.576 0 2.888-.525 3.942-1.576.682-.684 1.075-1.635 1.18-2.858H7.498V6.88h6.837c.066.369.099.724.099 1.065Z" fill="#fff"/><path d="M14.434 7.945c0 1.971-.583 3.54-1.752 4.711-1.33 1.393-3.058 2.089-5.184 2.089-2.04 0-3.77-.706-5.193-2.12C.877 11.216.167 9.463.167 7.375c0-2.091.71-3.841 2.138-5.255C3.728.708 5.459 0 7.498 0c1.009 0 1.978.198 2.895.593.92.395 1.656.92 2.209 1.576L11.36 3.41c-.934-1.114-2.22-1.674-3.862-1.674-1.487 0-2.77.522-3.855 1.566C2.559 4.35 2.018 5.704 2.018 7.374c0 1.667.54 3.024 1.625 4.069 1.084 1.046 2.368 1.566 3.855 1.566 1.576 0 2.888-.525 3.942-1.576.682-.684 1.075-1.635 1.18-2.858H7.498V6.88h6.837c.066.369.099.724.099 1.065ZM25.275 2.051h-6.426v4.474h5.796V8.22h-5.796v4.473h6.426v1.736h-8.239V.318h8.239V2.05Z" fill="#fff"/><path d="M25.275 2.051h-6.426v4.474h5.796V8.22h-5.796v4.473h6.426v1.736h-8.239V.318h8.239V2.05ZM32.921 14.43h-1.813V2.05h-3.942V.318h9.697v1.734h-3.942v12.378Z" fill="#fff"/><path d="M32.921 14.43h-1.813V2.05h-3.942V.318h9.697v1.734h-3.942v12.378ZM43.88.317h1.813V14.43H43.88V.317ZM53.736 14.43h-1.814V2.05H47.98V.318h9.698v1.734h-3.942v12.378Z" fill="#fff"/><path d="M53.736 14.43h-1.814V2.05H47.98V.318h9.698v1.734h-3.942v12.378ZM67.027 11.424c1.044 1.058 2.321 1.585 3.833 1.585 1.513 0 2.79-.527 3.834-1.585 1.044-1.059 1.569-2.409 1.569-4.05 0-1.642-.525-2.995-1.569-4.05-1.044-1.059-2.321-1.588-3.834-1.588-1.512 0-2.789.529-3.833 1.587-1.042 1.056-1.567 2.409-1.567 4.05 0 1.642.525 2.992 1.567 4.05Zm9.008 1.18c-1.388 1.428-3.112 2.14-5.175 2.14-2.062 0-3.786-.712-5.172-2.14-1.387-1.425-2.079-3.168-2.079-5.23 0-2.063.692-3.808 2.08-5.234C67.073.715 68.797 0 70.86 0c2.051 0 3.77.717 5.165 2.15 1.393 1.432 2.089 3.173 2.089 5.224 0 2.062-.694 3.805-2.08 5.23Z" fill="#fff"/><path d="M67.027 11.424c1.044 1.058 2.321 1.585 3.833 1.585 1.513 0 2.79-.527 3.834-1.585 1.044-1.059 1.569-2.409 1.569-4.05 0-1.642-.525-2.995-1.569-4.05-1.044-1.059-2.321-1.588-3.834-1.588-1.512 0-2.789.529-3.833 1.587-1.042 1.056-1.567 2.409-1.567 4.05 0 1.642.525 2.992 1.567 4.05Zm9.008 1.18c-1.388 1.428-3.112 2.14-5.175 2.14-2.062 0-3.786-.712-5.172-2.14-1.387-1.425-2.079-3.168-2.079-5.23 0-2.063.692-3.808 2.08-5.234C67.073.715 68.797 0 70.86 0c2.051 0 3.77.717 5.165 2.15 1.393 1.432 2.089 3.173 2.089 5.224 0 2.062-.694 3.805-2.08 5.23ZM80.659 14.43V.316h2.206l6.858 10.977h.08l-.08-2.719V.317h1.816V14.43h-1.893L82.47 2.92h-.078l.078 2.72v8.79h-1.811Z" fill="#fff"/><path d="M80.659 14.43V.316h2.206l6.858 10.977h.08l-.08-2.719V.317h1.816V14.43h-1.893L82.47 2.92h-.078l.078 2.72v8.79h-1.811Z" fill="#fff"/></svg>