<svg width="200" height="41" fill="none" xmlns="http://www.w3.org/2000/svg"><path d="M155.419 31.413h4.389V2.011h-4.389v29.402Zm39.531-18.811-5.031 12.748h-.151l-5.221-12.748h-4.728l7.83 17.816-4.462 9.912h4.575l12.068-27.728h-4.88Zm-24.889 15.471c-1.44 0-3.444-.717-3.444-2.497 0-2.268 2.496-3.138 4.653-3.138 1.928 0 2.839.416 4.01.983-.341 2.724-2.686 4.652-5.219 4.652Zm.529-16.113c-3.178 0-6.47 1.4-7.83 4.502l3.895 1.625c.833-1.625 2.383-2.157 4.01-2.157 2.27 0 4.577 1.362 4.615 3.784v.301c-.795-.454-2.496-1.133-4.577-1.133-4.199 0-8.474 2.307-8.474 6.618 0 3.935 3.443 6.47 7.3 6.47 2.952 0 4.58-1.323 5.6-2.876h.151v2.27h4.236V20.09c0-5.22-3.895-8.131-8.926-8.131Zm-27.123 4.222h-6.243V6.103h6.243c3.281 0 5.143 2.717 5.143 5.038 0 2.28-1.862 5.04-5.143 5.04Zm-.113-14.171h-10.516v29.402h4.386V20.274h6.13c4.864 0 9.645-3.523 9.645-9.133 0-5.61-4.781-9.13-9.645-9.13ZM86.009 28.078c-3.031 0-5.57-2.538-5.57-6.023 0-3.524 2.539-6.101 5.57-6.101 2.995 0 5.342 2.577 5.342 6.1 0 3.486-2.347 6.024-5.342 6.024Zm5.04-13.83h-.152c-.986-1.173-2.879-2.234-5.266-2.234-5.003 0-9.587 4.393-9.587 10.04 0 5.608 4.584 9.966 9.587 9.966 2.387 0 4.28-1.06 5.266-2.274h.153v1.441c0 3.827-2.046 5.873-5.344 5.873-2.69 0-4.358-1.933-5.04-3.563l-3.827 1.592C77.937 37.743 80.856 41 85.706 41c5.153 0 9.511-3.032 9.511-10.42V12.619H91.05v1.63Zm7.2 17.165h4.396V2.008h-4.396v29.405Zm10.874-9.7c-.113-3.864 2.994-5.835 5.228-5.835 1.745 0 3.222.87 3.714 2.122l-8.942 3.713Zm13.641-3.335c-.832-2.234-3.373-6.364-8.563-6.364-5.154 0-9.434 4.052-9.434 10.003 0 5.607 4.243 10.003 9.925 10.003 4.587 0 7.24-2.804 8.338-4.434l-3.41-2.274c-1.136 1.668-2.691 2.766-4.928 2.766-2.234 0-3.827-1.023-4.85-3.03l13.376-5.534-.454-1.136ZM16.2 15.083v4.243h10.153c-.303 2.388-1.098 4.13-2.31 5.342-1.479 1.48-3.791 3.109-7.843 3.109-6.254 0-11.142-5.04-11.142-11.292 0-6.254 4.888-11.292 11.142-11.292 3.372 0 5.835 1.327 7.653 3.032l2.994-2.994C24.307 2.806 20.937.948 16.2.948 7.636.948.437 7.92.437 16.485S7.636 32.02 16.2 32.02c4.621 0 8.107-1.517 10.835-4.358 2.806-2.804 3.676-6.743 3.676-9.928 0-.986-.075-1.893-.228-2.65H16.2Zm26.057 12.995c-3.031 0-5.647-2.5-5.647-6.061 0-3.601 2.616-6.063 5.647-6.063 3.03 0 5.645 2.462 5.645 6.063 0 3.56-2.615 6.061-5.645 6.061Zm0-16.064c-5.534 0-10.043 4.205-10.043 10.003 0 5.76 4.51 10.003 10.043 10.003 5.532 0 10.041-4.243 10.041-10.003 0-5.798-4.509-10.003-10.04-10.003Zm21.905 16.064c-3.032 0-5.648-2.5-5.648-6.061 0-3.601 2.616-6.063 5.648-6.063 3.031 0 5.644 2.462 5.644 6.063 0 3.56-2.613 6.061-5.644 6.061Zm0-16.064c-5.532 0-10.041 4.205-10.041 10.003 0 5.76 4.509 10.003 10.04 10.003 5.533 0 10.041-4.243 10.041-10.003 0-5.798-4.508-10.003-10.04-10.003Z" fill="#fff"/></svg>