<svg width="53" height="64" fill="none" xmlns="http://www.w3.org/2000/svg"><path d="M44.342 34.035a14.544 14.544 0 0 1 6.926-12.203 14.888 14.888 0 0 0-11.73-6.341c-4.936-.518-9.72 2.953-12.235 2.953-2.564 0-6.436-2.902-10.606-2.816a15.622 15.622 0 0 0-13.146 8.017c-5.684 9.841-1.444 24.304 4 32.259 2.725 3.895 5.909 8.246 10.075 8.092 4.076-.17 5.599-2.6 10.52-2.6 4.875 0 6.303 2.6 10.554 2.502 4.374-.071 7.13-3.913 9.759-7.845a32.214 32.214 0 0 0 4.462-9.089 14.055 14.055 0 0 1-8.58-12.929ZM36.313 10.259A14.32 14.32 0 0 0 39.59 0a14.57 14.57 0 0 0-9.427 4.878 13.627 13.627 0 0 0-3.361 9.879 12.047 12.047 0 0 0 9.512-4.498Z" fill="#fff"/></svg>