<svg width="58" height="64" fill="none" xmlns="http://www.w3.org/2000/svg"><path d="M27.407 30.564.914 58.682c.003.005.003.013.005.018A7.152 7.152 0 0 0 7.83 64a7.133 7.133 0 0 0 3.63-.985l.085-.05 29.82-17.207-13.957-15.194Z" fill="#EA4335"/><path d="m54.209 25.776-.025-.017-12.874-7.462-14.505 12.906 14.557 14.552 12.805-7.388a7.165 7.165 0 0 0 3.77-6.307 7.148 7.148 0 0 0-3.728-6.284Z" fill="#FBBC04"/><path d="M.914 5.315A7.025 7.025 0 0 0 .67 7.157v49.687c0 .637.085 1.254.246 1.838l27.402-27.398L.914 5.315Z" fill="#4285F4"/><path d="m27.603 32 13.71-13.708L11.53 1.022A7.162 7.162 0 0 0 7.83 0 7.162 7.162 0 0 0 .916 5.308l-.003.007L27.603 32Z" fill="#34A853"/></svg>